HIERARCHY
ROOT Hips
{
	OFFSET -0.001795 -0.223333 0.028219
	CHANNELS 6 Xposition Yposition Zposition Zrotation Yrotation Xrotation 
	JOINT LeftUpLeg
	{
		OFFSET 0.069520 -0.091406 -0.006815
		CHANNELS 3 Zrotation Yrotation Xrotation
		JOINT LeftLeg
		{
			OFFSET 0.034277 -0.375199 -0.004496
			CHANNELS 3 Zrotation Yrotation Xrotation
			JOINT LeftFoot
			{
				OFFSET -0.013596 -0.397961 -0.043693
				CHANNELS 3 Zrotation Yrotation Xrotation
				JOINT LeftToe
				{
					OFFSET 0.026358 -0.055791 0.119288
					CHANNELS 3 Zrotation Yrotation Xrotation
					End Site
					{
						OFFSET 0.000000 0.000000 0.000000
					}
				}
			}
		}
	}
	JOINT RightUpLeg
	{
		OFFSET -0.067670 -0.090522 -0.004320
		CHANNELS 3 Zrotation Yrotation Xrotation
		JOINT RightLeg
		{
			OFFSET -0.038290 -0.382569 -0.008850
			CHANNELS 3 Zrotation Yrotation Xrotation
			JOINT RightFoot
			{
				OFFSET 0.015774 -0.398415 -0.042312
				CHANNELS 3 Zrotation Yrotation Xrotation
				JOINT RightToe
				{
					OFFSET -0.025372 -0.048144 0.123348
					CHANNELS 3 Zrotation Yrotation Xrotation
					End Site
					{
						OFFSET 0.000000 0.000000 0.000000
					}
				}
			}
		}
	}
	JOINT Spine
	{
		OFFSET -0.002533 0.108963 -0.026696
		CHANNELS 3 Zrotation Yrotation Xrotation
		JOINT Spine1
		{
			OFFSET 0.005487 0.135180 0.001092
			CHANNELS 3 Zrotation Yrotation Xrotation
			JOINT Spine2
			{
				OFFSET 0.001457 0.052922 0.025425
				CHANNELS 3 Zrotation Yrotation Xrotation
				JOINT Neck
				{
					OFFSET -0.002778 0.213870 -0.042857
					CHANNELS 3 Zrotation Yrotation Xrotation
					JOINT Head
					{
						OFFSET 0.005152 0.064970 0.051349
						CHANNELS 3 Zrotation Yrotation Xrotation
						End Site
						{
							OFFSET 0.000000 0.000000 0.000000
						}
					}
				}
				JOINT LeftShoulder
				{
					OFFSET 0.078845 0.121749 -0.034090
					CHANNELS 3 Zrotation Yrotation Xrotation
					JOINT LeftArm
					{
						OFFSET 0.090977 0.030469 -0.008868
						CHANNELS 3 Zrotation Yrotation Xrotation
						JOINT LeftForeArm
						{
							OFFSET 0.259612 -0.012772 -0.027456
							CHANNELS 3 Zrotation Yrotation Xrotation
							JOINT LeftHand
							{
								OFFSET 0.249234 0.008986 -0.001171
								CHANNELS 3 Zrotation Yrotation Xrotation
								End Site
								{
									OFFSET 0.000000 0.000000 0.000000
								}
							}
						}
					}
				}
				JOINT RightShoulder
				{
					OFFSET -0.081759 0.118833 -0.038615
					CHANNELS 3 Zrotation Yrotation Xrotation
					JOINT RightArm
					{
						OFFSET -0.096012 0.032551 -0.009143
						CHANNELS 3 Zrotation Yrotation Xrotation
						JOINT RightForeArm
						{
							OFFSET -0.253742 -0.013329 -0.021401
							CHANNELS 3 Zrotation Yrotation Xrotation
							JOINT RightHand
							{
								OFFSET -0.255298 0.007772 -0.005559
								CHANNELS 3 Zrotation Yrotation Xrotation
								End Site
								{
									OFFSET 0.000000 0.000000 0.000000
								}
							}
						}
					}
				}
			}
		}
	}
}
MOTION
Frames: 13
Frame Time: 0.050000
0.000000 0.903114 0.000000 1.717405 -14.422146 1.647986 -2.096518 -2.278532 -34.813633 -6.253138 1.757713 16.710512 15.280433 27.188011 11.080555 0.000000 0.000000 0.000000 -2.678633 -0.490872 19.753979 2.747920 1.594032 30.534657 0.512329 -6.709727 15.555498 0.000000 0.000000 0.000000 -7.253450 0.552468 9.728346 4.164981 -0.668342 -23.061986 3.187197 13.465617 26.142785 4.194635 0.487414 -30.980446 0.000000 0.000000 0.000000 -18.316385 5.082424 -4.897620 -47.493059 14.901624 -12.761555 -31.965327 -22.057566 7.198093 0.000000 0.000000 0.000000 13.803396 3.584890 1.837977 54.764228 5.345105 -5.238653 38.874431 49.840359 22.503431 0.000000 0.000000 0.000000 
-0.012543 0.894114 0.110201 1.339748 -8.121283 0.606995 -6.421096 -3.738813 -29.173846 -5.462743 1.694378 25.341008 16.707128 31.377810 5.357886 0.000000 0.000000 0.000000 -0.361259 -0.687593 8.557583 6.885525 0.500125 53.208113 -4.470937 -13.567007 11.324662 0.000000 0.000000 0.000000 -7.882546 0.534899 10.641412 6.310226 -1.091607 -23.180642 0.348068 8.718837 26.463648 3.715592 0.677074 -32.449627 0.000000 0.000000 0.000000 -21.599601 4.157090 -4.709113 -46.425639 6.635596 -9.642701 -30.214811 -24.817906 7.842401 0.000000 0.000000 0.000000 13.714553 2.500958 1.156832 57.787074 -0.259071 -8.094107 36.931091 43.667777 18.257320 0.000000 0.000000 0.000000 
-0.024257 0.890165 0.219081 1.793245 -4.000950 -3.039133 -8.256716 -2.888053 -18.034971 -7.301866 2.505023 33.010525 14.023540 29.545478 -6.481921 0.000000 0.000000 0.000000 -2.640508 0.487416 -5.569517 11.251448 -4.255742 73.538978 -6.269281 -16.652031 11.121463 0.000000 0.000000 0.000000 -7.515983 0.518519 15.649784 4.307014 -0.438523 -25.195730 -0.143705 5.736448 29.633923 1.250006 2.059280 -37.598581 0.000000 0.000000 0.000000 -24.027369 0.187213 -2.385331 -45.193038 -6.003211 -5.396688 -27.489078 -34.088046 10.256339 0.000000 0.000000 0.000000 17.045481 2.604247 1.235032 56.950329 -1.180853 -8.950847 20.018825 31.941751 7.460457 0.000000 0.000000 0.000000 
-0.034570 0.894287 0.329608 0.297325 1.408046 -4.605910 -8.215607 -0.835642 -5.152870 -2.754039 -0.128390 28.342488 11.494807 23.837844 -13.581053 0.000000 0.000000 0.000000 -2.792710 1.476282 -19.597798 12.329143 -8.713761 75.592688 -9.999732 -23.681613 4.391438 0.000000 0.000000 0.000000 -5.126812 -0.000144 18.024739 5.550848 -0.839075 -23.066087 -3.051022 0.908626 26.450461 0.574622 1.988895 -34.512640 0.000000 0.000000 0.000000 -24.435214 -0.154077 -1.873167 -43.932150 -14.354916 -2.285602 -39.708644 -46.160871 20.237158 0.000000 0.000000 0.000000 16.640491 0.943540 -0.031471 53.763295 -9.014513 -11.490016 20.191499 21.895561 4.641809 0.000000 0.000000 0.000000 
-0.044423 0.912751 0.448834 -2.156602 5.962323 -3.617562 -4.005013 0.888850 7.284501 0.628656 -1.307186 21.782028 9.333429 16.653047 -12.587862 0.000000 0.000000 0.000000 -2.677797 1.831033 -28.924184 11.335920 -7.606621 58.312718 -9.062812 -22.162955 -4.768478 0.000000 0.000000 0.000000 -1.820231 -0.480742 14.294013 5.847396 -0.792650 -23.486685 -4.642033 -4.526470 28.349001 -1.904638 2.721209 -33.736653 0.000000 0.000000 0.000000 -23.047004 -0.395437 -0.750738 -43.531465 -19.728064 -0.814155 -58.284214 -60.509664 41.250709 0.000000 0.000000 0.000000 13.794968 -1.794521 -1.673927 52.235581 -16.523715 -14.284609 20.821527 16.584008 3.356276 0.000000 0.000000 0.000000 
-0.054957 0.937170 0.575921 -4.543713 8.606930 -3.699228 0.571873 1.021011 16.935315 2.044006 -1.288700 15.708352 5.313270 10.634072 0.345726 0.000000 0.000000 0.000000 -1.194949 1.979070 -28.385939 6.737184 -2.594747 32.046224 -7.324716 -17.614598 6.260530 0.000000 0.000000 0.000000 1.046320 -0.644948 10.967284 6.421975 -0.640064 -27.594484 -6.929336 -9.439545 31.826056 -2.750064 2.526451 -32.977734 0.000000 0.000000 0.000000 -21.669779 2.416499 -1.269425 -45.562308 -18.970304 -1.629118 -81.879681 -64.800012 66.381535 0.000000 0.000000 0.000000 9.445867 -0.332674 -0.966253 53.255082 -19.916683 -16.441813 21.314598 12.438350 2.353538 0.000000 0.000000 0.000000 
-0.064344 0.956722 0.703427 -3.993361 10.752007 -3.017775 2.447994 0.510556 13.598343 1.273512 -2.513227 28.933580 3.638038 10.656499 10.090761 0.000000 0.000000 0.000000 0.620998 2.057550 -24.343916 1.371561 -0.161795 19.366765 -7.737161 -17.895323 13.399527 0.000000 0.000000 0.000000 -0.117898 -0.264476 5.993246 5.487998 -0.489656 -25.627962 -5.231288 -9.604632 30.374069 -1.640514 2.010067 -27.745964 0.000000 0.000000 0.000000 -20.206723 3.696111 -2.367201 -48.423418 -18.662882 -1.324038 -90.214050 -61.066113 69.933157 0.000000 0.000000 0.000000 8.559720 -0.392889 -0.781771 54.530503 -24.091262 -18.399889 20.599760 12.423856 2.305556 0.000000 0.000000 0.000000 
-0.071535 0.964991 0.822476 -4.417004 12.397004 -4.338762 5.174325 -0.066914 3.857151 -3.942786 -2.592371 46.222727 7.040055 16.095382 11.017958 0.000000 0.000000 0.000000 3.427337 1.853489 -15.757369 0.975503 -0.146831 18.789130 -9.004852 -20.200183 12.844685 0.000000 0.000000 0.000000 -1.078793 -0.170888 4.746698 6.956987 -0.913229 -24.378820 -4.150539 -6.107274 29.973274 0.210091 1.780645 -27.735516 0.000000 0.000000 0.000000 -19.326671 4.426337 -3.922218 -50.507167 -12.346429 -3.503539 -80.729222 -51.440760 49.668610 0.000000 0.000000 0.000000 10.809296 -1.856409 -1.029509 53.804359 -21.010743 -16.457016 19.819448 15.226351 2.984823 0.000000 0.000000 0.000000 
-0.075355 0.969503 0.932779 -3.361399 9.549114 -6.341311 4.349844 -0.443363 -6.763601 -9.539498 0.674664 54.349879 9.908951 20.313140 8.991600 0.000000 0.000000 0.000000 4.474160 0.820009 -5.736309 -0.376803 0.402509 17.459163 -6.896891 -16.956496 9.602791 0.000000 0.000000 0.000000 -2.430237 -0.200895 6.788089 5.899434 -0.640640 -25.551966 -0.744507 -1.399078 30.805378 1.431371 1.577788 -27.315744 0.000000 0.000000 0.000000 -20.049189 4.552001 -4.809323 -50.779269 -3.642568 -7.026739 -56.982200 -41.038461 25.453194 0.000000 0.000000 0.000000 12.813772 -0.643319 -0.048140 54.240747 -11.601875 -12.823947 17.167178 19.163213 3.582651 0.000000 0.000000 0.000000 
-0.077028 0.968908 1.038281 -2.300492 4.709479 -6.390200 3.997005 -1.106654 -17.154248 -11.376918 3.282964 47.349533 11.428331 22.722946 5.614841 0.000000 0.000000 0.000000 3.712430 -0.496699 3.532544 -0.051966 0.463928 14.605912 -3.925905 -10.619805 3.202498 0.000000 0.000000 0.000000 -2.764883 -0.190108 7.711645 5.138292 -0.563420 -24.870960 2.161239 4.282734 29.845667 0.918601 2.448150 -28.507156 0.000000 0.000000 0.000000 -19.135080 6.636828 -6.458591 -50.893854 6.735046 -10.941781 -41.342972 -26.659923 11.086658 0.000000 0.000000 0.000000 11.745598 1.054668 1.060936 57.899343 -2.098978 -9.038556 16.309462 26.985631 5.391657 0.000000 0.000000 0.000000 
-0.076647 0.959273 1.139208 -1.759163 0.366382 -6.955181 3.028753 -1.384644 -20.804696 -8.709523 2.070844 26.588564 13.063993 25.669960 1.778649 0.000000 0.000000 0.000000 3.033777 -1.661460 12.780373 0.274445 0.368010 10.733992 -2.676859 -6.850660 0.100022 0.000000 0.000000 0.000000 -3.354062 -0.169632 10.157713 4.895268 -0.594220 -24.532445 3.636790 7.823522 28.806187 0.495199 2.939632 -30.628771 0.000000 0.000000 0.000000 -18.711114 8.229548 -7.380265 -48.109914 16.006746 -13.653830 -32.610089 -17.794381 5.650084 0.000000 0.000000 0.000000 11.551862 2.755056 1.903271 56.828710 6.038501 -5.089420 17.488695 35.566201 8.064022 0.000000 0.000000 0.000000 
-0.073995 0.941890 1.239171 -1.538334 -4.038816 -6.347567 4.465248 -0.990213 -22.485728 -6.952891 0.995228 4.777285 15.396898 29.226983 4.832721 0.000000 0.000000 0.000000 2.644530 -2.207758 19.249266 -2.609175 0.951170 10.003022 -1.447860 -2.515790 -2.209188 0.000000 0.000000 0.000000 -5.256093 0.028876 9.708331 4.740205 -0.749948 -22.771482 5.793971 10.510623 28.403752 -0.266288 3.327445 -30.352967 0.000000 0.000000 0.000000 -18.502927 9.441095 -7.955939 -46.174702 21.543458 -14.965120 -27.097649 -11.405354 2.973582 0.000000 0.000000 0.000000 10.722682 4.059650 2.362310 55.174600 10.314954 -2.929279 20.705364 46.115337 12.511907 0.000000 0.000000 0.000000 
-0.067339 0.920479 1.344254 -1.743489 -5.663974 -5.568122 4.119889 -0.974516 -22.274843 -6.255006 0.772596 -0.522508 15.699977 29.343340 6.799861 0.000000 0.000000 0.000000 1.905401 -2.448999 24.286614 -1.850672 0.850186 10.515047 -3.299419 -6.581063 -3.666483 0.000000 0.000000 0.000000 -6.601413 0.135954 8.430560 6.148177 -1.142370 -22.609560 6.132068 10.822495 30.575456 -1.680959 4.039968 -31.939878 0.000000 0.000000 0.000000 -18.939635 10.648771 -8.582495 -43.882808 23.895813 -15.017202 -24.843042 -8.496022 2.031030 0.000000 0.000000 0.000000 11.246481 3.447311 2.087567 55.676924 13.829231 -1.546317 30.945129 52.937909 20.615874 0.000000 0.000000 0.000000 
